PathFileType	4	(X/Y/Z)	walk-thru1-3-TP.trc
DataRate	CameraRate	NumFrames	NumMarkers	Units	OrigDataRate	OrigDataStartFrame	OrigNumFrames
120.00	120.00	       4	60	mm	120.00	1	       597
Frame#	Time	Top.Head			Front.Head			Rear.Head			Jaw			C7			R.Clavicle			L.Clavicle			R.Shoulder			L.Shoulder			R.Scapula			L.Scapula			R.Scap.Inf			R.Biceps.Lateral			R.Elbow			R.Elbow.Medial			R.Forearm			R.Ulna			R.Radius			R.Wrist			R.Thumb.M1			R.Thumb.M2			R.Thumb.M3			R.Finger3.M1			R.Finger3.M2			R.Finger3.M3			L.Biceps.Lateral			L.Elbow			L.Elbow.Medial			L.Forearm			L.Ulna			L.Radius			L.Wrist			L.Thumb.M1			L.Thumb.M2			L.Thumb.M3			L.Finger3.M1			L.Finger3.M2			L.Finger3.M3			V.Sacral			R.ASIS			L.ASIS			R.Thigh			R.Thigh.Front			R.Knee			R.Knee.Medial			R.Shank			R.Ankle			R.Ankle.Medial			R.Heel			R.Toe			R.MedFoot			L.Thigh			L.Knee			L.Knee.Medial			L.Shank			L.Ankle			L.Ankle.Medial			L.Heel			L.Toe			L.MedFoot			V_mid_ASIS			V_R_Knee_JC			V_L_Knee_JC			V_R_Elbow_JC			V_L_Elbow_JC			V_R_Ankle_JC			V_L_Ankle_JC			V_R_Wrist_JC			V_L_Wrist_JC			V_R_ScaTrpz_1stMC_JC			V_R_1stMC_1stPP_JC			V_R_1stPP_1stDP_JC			V_R_LunCap_3rdMC_JC			V_R_3rdMC_3rdPP_JC			V_R_3rdPP_3rdMP_JC			V_R_3rdMP_3rdDP_JC			V_L_ScaTrpz_1stMC_JC			V_L_1stMC_1stPP_JC			V_L_1stPP_1stDP_JC			V_L_LunCap_3rdMC_JC			V_L_3rdMC_3rdPP_JC			V_L_3rdPP_3rdMP_JC			V_L_3rdMP_3rdPP_JC			V_ROOT_JC			V_R_Hip_JC			V_L_Hip_JC			V_R_GlenHum_JC			V_L_GlenHum_JC			V_ForeHead_Ctr			V_Vertex			V_Sagit_Lambdoid_Suture			V_R_FrontoTemp			V_L_FrontoTemporal			V_R_ParietalOccip			V_L_ParietalOcciptal			V_R_Temporal			V_L_Temporal			V_mid_FrontRearHead			V_mid_RLGlenHumCtrs			V_C7_vert			V_C1_vert			V_Mid_Hip			
		X1	Y1	Z1	X2	Y2	Z2	X3	Y3	Z3	X4	Y4	Z4	X5	Y5	Z5	X6	Y6	Z6	X7	Y7	Z7	X8	Y8	Z8	X9	Y9	Z9	X10	Y10	Z10	X11	Y11	Z11	X12	Y12	Z12	X13	Y13	Z13	X14	Y14	Z14	X15	Y15	Z15	X16	Y16	Z16	X17	Y17	Z17	X18	Y18	Z18	X19	Y19	Z19	X20	Y20	Z20	X21	Y21	Z21	X22	Y22	Z22	X23	Y23	Z23	X24	Y24	Z24	X25	Y25	Z25	X26	Y26	Z26	X27	Y27	Z27	X28	Y28	Z28	X29	Y29	Z29	X30	Y30	Z30	X31	Y31	Z31	X32	Y32	Z32	X33	Y33	Z33	X34	Y34	Z34	X35	Y35	Z35	X36	Y36	Z36	X37	Y37	Z37	X38	Y38	Z38	X39	Y39	Z39	X40	Y40	Z40	X41	Y41	Z41	X42	Y42	Z42	X43	Y43	Z43	X44	Y44	Z44	X45	Y45	Z45	X46	Y46	Z46	X47	Y47	Z47	X48	Y48	Z48	X49	Y49	Z49	X50	Y50	Z50	X51	Y51	Z51	X52	Y52	Z52	X53	Y53	Z53	X54	Y54	Z54	X55	Y55	Z55	X56	Y56	Z56	X57	Y57	Z57	X58	Y58	Z58	X59	Y59	Z59	X60	Y60	Z60	

1	0.000	1719.88171	-61.95413	1773.60999	1616.21411	-41.38150	1654.65601	1850.23950	-68.37547	1696.11731	1703.12366	-46.69424	1478.11304	1940.31775	-57.62634	1573.61096	1845.68384	69.25453	1497.40979	1829.97058	-172.44333	1472.83008	1900.98962	173.60570	1494.30725	1873.24585	-281.13220	1472.12048	2008.38171	39.82510	1488.96082	2005.09546	-151.13458	1471.90601	2040.74731	46.18150	1399.15454	1946.80994	208.87039	1356.18262	2018.38062	241.45038	1177.42407	2010.62085	145.70897	1166.41309	1925.77747	241.56683	1106.47375	1993.98376	248.96696	974.84747	1882.84851	240.15471	937.61609	1881.78516	286.86853	912.52997	1866.59619	236.36066	892.08447	1857.37256	218.91216	843.67444	1853.50256	223.48143	791.12146	1864.71423	308.38757	832.54224	1898.00146	268.44138	771.32306	1929.07190	218.17326	789.18665	1924.85657	-308.18988	1325.28027	1981.72913	-322.97076	1154.32495	1996.48560	-228.69879	1130.19580	1892.46619	-319.59174	1079.59167	1941.20459	-343.29736	970.61853	1839.72388	-321.02286	925.61554	1859.29688	-365.21902	889.65704	1812.28442	-324.09479	873.29028	1787.65552	-301.04779	829.71027	1771.69458	-303.66110	782.07092	1821.99365	-379.29987	795.56024	1814.89282	-348.43036	737.61743	1822.32397	-289.09921	737.01617	2057.33838	-37.17821	1121.75964	1872.22302	159.45253	1069.50305	1862.41565	-192.17943	1059.78418	1808.27551	164.82263	704.06616	1708.62390	85.05040	610.83075	1752.87170	147.96906	550.76550	1759.86340	29.12632	540.56628	1791.53247	121.94068	331.96356	1933.93958	162.23737	133.25970	1903.57910	58.88842	142.97455	1996.28699	107.19109	104.62981	1780.79236	129.74170	57.04561	1820.41199	98.01624	101.85438	1894.84961	-176.69609	670.06384	1896.24536	-146.06410	526.95825	1906.50854	-39.36294	512.88446	1904.27869	-93.63493	320.65988	2021.39746	-91.35764	79.39405	1971.64490	-3.03410	110.76935	2060.74194	-20.43003	49.87889	1839.45459	-86.86699	41.69435	1901.77332	-41.47708	85.45815																																																																																																																															
2	0.008	1717.10974	-62.38828	1773.76453	1612.64966	-41.90114	1654.87463	1844.58887	-68.24248	1696.03333	1696.41479	-45.81340	1476.85229	1936.27393	-59.22179	1572.46436	1841.79993	68.39065	1496.62939	1825.82300	-173.59161	1473.24597	1897.64380	173.09149	1493.53381	1869.56152	-281.46173	1471.99426	2004.64685	39.75602	1489.12476	2000.96851	-152.09193	1471.52930	2037.31165	44.61361	1399.68420	1941.35083	208.12451	1356.02112	2014.16431	240.55769	1177.68237	2006.44312	144.36263	1165.96631	1921.79529	241.40050	1104.30774	1988.58740	247.46323	973.82880	1882.36572	235.03935	936.16968	1876.65210	285.46729	912.44495	1862.55188	237.65155	889.70721	1854.61548	218.83795	842.64337	1852.71960	223.22874	788.75610	1860.18347	308.66071	833.37042	1894.36475	274.76102	769.59650	1924.80151	223.11198	787.70435	1920.14417	-308.79053	1323.73523	1976.19678	-323.41724	1154.51257	1991.43127	-230.14890	1129.25427	1886.16516	-321.98358	1079.99622	1935.55591	-345.30783	970.66412	1832.59778	-322.72736	925.82324	1850.70850	-365.44592	889.36084	1804.96045	-325.37878	874.24493	1779.79907	-301.84354	831.26886	1764.01257	-304.95175	783.90027	1814.40210	-379.33112	797.51251	1805.40088	-348.79099	739.08221	1811.01343	-290.92181	737.43512	2053.71143	-37.82149	1121.74170	1866.51929	159.94136	1069.26416	1862.41565	-192.17943	1059.78418	1803.38538	165.79413	704.54602	1703.64966	84.33208	611.72723	1746.67297	145.91423	550.84119	1755.63147	29.00266	540.49677	1780.70337	120.85413	331.50974	1918.18103	162.41823	129.81671	1888.13940	59.34460	139.68649	1981.77185	110.98106	99.19146	1762.94763	128.10625	56.62815	1804.98755	96.45618	101.83089	1893.17212	-176.99542	670.50635	1894.18359	-146.10866	526.84338	1902.88611	-41.25475	513.97327	1903.40271	-93.49172	320.39044	2021.55664	-91.09445	79.72630	1971.64490	-3.03410	110.76935	2060.62354	-20.17324	49.54080	1839.30151	-86.93291	41.28491	1901.17078	-41.21156	85.56012																																																																																																																															
3	0.017	1712.39038	-63.06245	1773.05505	1607.24707	-43.03792	1654.16150	1840.09045	-68.29107	1695.31396	1694.81799	-47.10625	1476.70361	1930.84058	-58.97212	1573.53735	1837.40906	67.72736	1497.16248	1821.54553	-173.93880	1473.25305	1892.07617	171.71695	1493.99109	1865.21045	-281.93256	1470.88806	1999.86938	39.05507	1488.69165	1996.68787	-152.49132	1471.57861	2031.97681	44.73685	1397.94373	1935.30615	208.92715	1356.57800	2009.66138	240.54900	1176.39001	2001.91248	143.29012	1166.48022	1916.82983	239.44353	1104.83972	1983.97034	245.63104	974.16443	1879.78516	234.48418	933.54327	1871.72852	284.06033	912.54169	1858.65808	236.89853	886.96674	1851.16504	218.71744	835.89539	1851.17627	228.45447	785.26300	1856.26379	310.97668	834.91913	1892.02637	280.09067	769.21967	1920.19202	226.36655	786.44061	1915.68945	-309.37332	1323.45374	1971.80347	-325.01135	1153.31067	1986.52417	-230.68460	1128.45435	1882.34009	-322.18222	1080.16992	1929.57813	-346.72159	969.87817	1825.62280	-322.96057	927.09534	1843.75305	-365.31174	890.87048	1796.14905	-323.79398	876.39368	1772.61646	-302.95547	832.52795	1756.05200	-306.42599	786.26337	1806.60852	-380.70694	798.69177	1796.71558	-349.77216	739.94495	1803.07349	-291.50107	738.67792	2049.26294	-37.40561	1121.31909	1863.49036	158.21722	1069.36487	1857.35596	-193.16847	1059.70508	1799.18372	164.33685	704.58197	1698.69336	83.25488	612.30316	1742.19104	145.14676	551.47058	1750.42200	28.77672	540.66840	1768.75879	120.51830	332.42374	1902.60339	161.33107	127.60996	1871.99377	58.14919	137.34253	1961.57959	109.43954	95.12539	1746.75598	126.32652	56.35118	1788.27637	94.89397	100.52004	1889.16931	-176.98087	669.30615	1893.35583	-146.00098	526.89093	1901.64526	-40.26426	513.83057	1902.92297	-93.11359	320.04141	2021.55664	-91.09445	79.72630	1971.64490	-3.03410	110.76935	2060.52490	-20.23078	49.78933	1839.49866	-86.94366	41.54890	1901.07483	-41.28823	85.48740																																																																																																																															
4	0.025	1707.49597	-63.95137	1772.73035	1604.12720	-43.48896	1653.93555	1836.11743	-68.53791	1695.23254	1689.34570	-46.66180	1476.18884	1926.08264	-59.34801	1572.62439	1833.95251	66.73790	1497.39465	1817.29651	-174.69225	1472.58960	1889.35608	171.98271	1493.24304	1860.88428	-282.63474	1469.70715	1996.29272	38.26545	1488.88293	1991.58386	-152.88719	1471.17163	2028.79504	44.72117	1399.30103	1934.63208	208.73595	1355.32336	2007.07019	240.09373	1176.63013	1998.05859	143.38066	1165.60266	1911.32544	238.23357	1104.92041	1979.38599	245.87685	974.30646	1873.92859	233.52621	932.74072	1870.52673	284.79785	911.67938	1855.01392	236.14302	885.57526	1851.14185	218.64136	834.86603	1850.16675	229.97379	783.96381	1852.70764	312.47482	836.39728	1889.40845	283.93127	769.10266	1917.96289	231.13193	786.66003	1911.24768	-309.57187	1323.29272	1966.26904	-325.02713	1153.28882	1981.85510	-231.78227	1127.70715	1875.52722	-321.94409	1081.46204	1922.29480	-346.64908	969.78845	1819.93982	-324.72177	927.67896	1838.09729	-368.77405	891.06207	1789.65479	-327.20920	876.96075	1764.04187	-302.17038	833.91547	1748.23364	-310.04443	786.65649	1797.92554	-380.72134	800.35443	1786.71936	-350.02237	740.75879	1793.82568	-291.65555	740.22290	2044.98743	-38.48851	1121.30542	1859.32495	158.22891	1069.09460	1850.00842	-192.70296	1059.15320	1793.91272	164.78221	704.92029	1693.49609	83.48127	613.93884	1735.85107	145.42918	552.31555	1744.07202	27.72606	541.22156	1759.03235	120.01180	332.88000	1887.24585	161.48245	123.10230	1858.23315	58.79207	135.29662	1945.39917	109.09282	91.21271	1730.05444	126.63068	58.51829	1772.99963	94.64650	101.22688	1887.25537	-176.22330	668.76141	1891.96655	-146.16948	526.62427	1903.48450	-38.31342	512.64471	1901.55872	-92.65936	319.86075	2020.56226	-90.35583	79.38480	1971.84277	-2.31020	110.93698	2060.40283	-19.62951	49.89217	1839.61084	-86.90160	41.40484	1901.59265	-41.04243	85.36941																																																																																																																															
